<svg xmlns="http://www.w3.org/2000/svg" width="744.615" height="542.262" viewBox="0 0 744.615 542.262">
  <g id="Group_83" data-name="Group 83" transform="translate(-77 -1577)">
    <g id="Group_79" data-name="Group 79" transform="translate(77 1577)">
      <path id="Path_47" data-name="Path 47" d="M932.5,629.951a322.613,322.613,0,0,1-15.07,89.18c-.21.67-.43,1.33-.65,2h-56.24c.06-.6.12-1.27.18-2,3.75-43.11,25.37-305.49-.48-350.36C862.5,372.411,936.862,492.971,932.5,629.951Z" transform="translate(-227.693 -178.869)" fill="#e6e6e6"/>
      <path id="Path_48" data-name="Path 48" d="M928.283,719.131c-.47.67-.96,1.34-1.46,2h-42.19c.32-.57.69-1.24,1.12-2,6.97-12.58,27.6-50.19,46.75-89.18,20.58-41.9,39.46-85.39,37.87-101.13C970.862,532.371,985.1,640.591,928.283,719.131Z" transform="translate(-227.693 -178.869)" fill="#e6e6e6"/>
      <path id="Path_49" data-name="Path 49" d="M283.045,675.924a158.4,158.4,0,0,0,7.4,43.785c.1.329.211.653.319.982h27.612c-.029-.295-.059-.624-.088-.982-1.841-21.166-12.456-149.988.236-172.018C317.413,549.478,280.9,608.67,283.045,675.924Z" transform="translate(-227.693 -178.869)" fill="#e6e6e6"/>
      <path id="Path_50" data-name="Path 50" d="M285.117,719.709c.231.329.471.658.717.982h20.714c-.157-.28-.339-.609-.55-.982-3.422-6.176-13.551-24.642-22.953-43.785-10.1-20.572-19.374-41.924-18.593-49.652C264.211,628.014,257.219,681.148,285.117,719.709Z" transform="translate(-227.693 -178.869)" fill="#e6e6e6"/>
      <path id="Path_51" data-name="Path 51" d="M811.279,721.053H523.012a5.344,5.344,0,0,1-5.338-5.338V644.207a5.345,5.345,0,0,1,5.338-5.338H811.279a5.345,5.345,0,0,1,5.338,5.338v71.507A5.345,5.345,0,0,1,811.279,721.053ZM523.012,641a3.207,3.207,0,0,0-3.2,3.2v71.507a3.206,3.206,0,0,0,3.2,3.2H811.279a3.206,3.206,0,0,0,3.2-3.2V644.207a3.207,3.207,0,0,0-3.2-3.2Z" transform="translate(-227.693 -178.869)" fill="#e6e6e6"/>
      <circle id="Ellipse_7" data-name="Ellipse 7" cx="21.745" cy="21.745" r="21.745" transform="translate(318.365 476.603)" fill="#e6e6e6"/>
      <path id="Path_52" data-name="Path 52" d="M618.024,662.72a3.624,3.624,0,0,0,0,7.248H788.88a3.624,3.624,0,0,0,0-7.248Z" transform="translate(-227.693 -178.869)" fill="#e6e6e6"/>
      <path id="Path_53" data-name="Path 53" d="M618.024,684.466a3.624,3.624,0,1,0,0,7.248h73.52a3.624,3.624,0,0,0,0-7.248Z" transform="translate(-227.693 -178.869)" fill="#e6e6e6"/>
      <path id="Path_54" data-name="Path 54" d="M883.279,615.053H595.012a5.345,5.345,0,0,1-5.338-5.338V538.207a5.344,5.344,0,0,1,5.338-5.338H883.279a5.345,5.345,0,0,1,5.338,5.338v71.507A5.345,5.345,0,0,1,883.279,615.053ZM595.012,535a3.206,3.206,0,0,0-3.2,3.2v71.507a3.207,3.207,0,0,0,3.2,3.2H883.279a3.206,3.206,0,0,0,3.2-3.2V538.207a3.207,3.207,0,0,0-3.2-3.2Z" transform="translate(-227.693 -178.869)" fill="#e6e6e6"/>
      <circle id="Ellipse_8" data-name="Ellipse 8" cx="21.745" cy="21.745" r="21.745" transform="translate(390.365 370.603)" fill="#e6e6e6"/>
      <path id="Path_55" data-name="Path 55" d="M690.024,556.72a3.624,3.624,0,0,0,0,7.248H860.88a3.624,3.624,0,0,0,0-7.248Z" transform="translate(-227.693 -178.869)" fill="#e6e6e6"/>
      <path id="Path_56" data-name="Path 56" d="M690.024,578.466a3.624,3.624,0,0,0,0,7.248h73.52a3.624,3.624,0,0,0,0-7.248Z" transform="translate(-227.693 -178.869)" fill="#e6e6e6"/>
      <path id="Path_57" data-name="Path 57" d="M827.279,436.053H539.012a5.345,5.345,0,0,1-5.338-5.338V184.207a5.345,5.345,0,0,1,5.338-5.338H827.279a5.345,5.345,0,0,1,5.338,5.338V430.714a5.344,5.344,0,0,1-5.338,5.339ZM539.012,181a3.206,3.206,0,0,0-3.2,3.2V430.714a3.207,3.207,0,0,0,3.2,3.2H827.279a3.206,3.206,0,0,0,3.2-3.2V184.207a3.206,3.206,0,0,0-3.2-3.2Z" transform="translate(-227.693 -178.869)" fill="#e6e6e6"/>
      <circle id="Ellipse_9" data-name="Ellipse 9" cx="21.745" cy="21.745" r="21.745" transform="translate(334.365 191.603)" fill="#e6e6e6"/>
      <path id="Path_58" data-name="Path 58" d="M634.024,377.72a3.624,3.624,0,0,0,0,7.248H804.88a3.624,3.624,0,0,0,0-7.248Z" transform="translate(-227.693 -178.869)" fill="#e6e6e6"/>
      <path id="Path_59" data-name="Path 59" d="M634.024,399.466a3.624,3.624,0,1,0,0,7.248h73.52a3.624,3.624,0,0,0,0-7.248Z" transform="translate(-227.693 -178.869)" fill="#e6e6e6"/>
      <path id="Path_60" data-name="Path 60" d="M355.039,461.662l3.178,25.3a13.3,13.3,0,0,0,18.6,10.495h0a13.3,13.3,0,0,0,6.248-18.562L369.7,454.6l-4.37-104.47-28.259,6.59Z" transform="translate(-227.693 -178.869)" fill="#ffb8b8"/>
      <path id="Path_61" data-name="Path 61" d="M233.19,517.322l-22,2-13-181-.5,46.5-48,128-19-15,31.5-127.5-15-71h98Z" fill="#2f2e41"/>
      <path id="Path_62" data-name="Path 62" d="M482.7,720.652l-40.9-1a11.082,11.082,0,0,1-11.755-12.794l1.676-10.53a9.012,9.012,0,0,1,8.257-7.572h0c6.98,7.224,14.2,6.157,21.612-1.546l16.859,17.1,2.518-.338a8.387,8.387,0,0,1,9.173,5.978h0a8.387,8.387,0,0,1-7.442,10.7Z" transform="translate(-227.693 -178.869)" fill="#2f2e41"/>
      <path id="Path_63" data-name="Path 63" d="M389.543,719.3l-41.014-15.474a11.846,11.846,0,0,1-5.649-17.693l6.359-9.46a9.633,9.633,0,0,1,11.412-3.632h0c3.522,10.144,11,12.355,21.655,8.216l10.461,20.287,2.594.8a8.965,8.965,0,0,1,6.209,9.922h0a8.965,8.965,0,0,1-12.027,7.03Z" transform="translate(-227.693 -178.869)" fill="#2f2e41"/>
      <circle id="Ellipse_10" data-name="Ellipse 10" cx="26" cy="26" r="26" transform="translate(172.19 21.322)" fill="#ffb8b8"/>
      <path id="Path_64" data-name="Path 64" d="M428.883,274.191l-45-1c12.365-13.68,19.876-27.951,21-43h24Z" transform="translate(-227.693 -178.869)" fill="#ffb8b8"/>
      <path id="Path_65" data-name="Path 65" d="M475.883,492.191c-42.478-10.9-82.334-18.245-107-5,4.32-45.411-.677-103.379-15.5-163.965-4.814-19.679-1.549-37.411,16-47.535l23.5-13.5,36,1,18.783,10.392A47.16,47.16,0,0,1,472.92,324.56C462.827,377.667,468.281,434.985,475.883,492.191Z" transform="translate(-227.693 -178.869)" fill="#3f3d56"/>
      <path id="Path_66" data-name="Path 66" d="M484.883,460.191l3.524,25.255a13.3,13.3,0,0,1-15.226,14.979h0a13.3,13.3,0,0,1-10.869-16.293l6.571-26.941-23-102,29-1Z" transform="translate(-227.693 -178.869)" fill="#ffb8b8"/>
      <path id="Path_67" data-name="Path 67" d="M378.883,365.191l-47-3c3.672-46.236,14.122-71.511,30-80l17,20Z" transform="translate(-227.693 -178.869)" fill="#3f3d56"/>
      <path id="Path_68" data-name="Path 68" d="M443.883,217.191c-9.16-2.93-13.914,15.852-27.5,27.5-3.088,2.648-10.794-7.676-13.5-4.5l-4.375-13.317c-5.191-15.8,4.163-33.023,20.427-36.495q.648-.138,1.307-.248h0a29.157,29.157,0,0,1,32.872,20.911,3.859,3.859,0,0,1-2.926,4.753Z" transform="translate(-227.693 -178.869)" fill="#2f2e41"/>
      <path id="Path_69" data-name="Path 69" d="M257.19,177.322l-44,10-2-72,25,1Z" fill="#3f3d56"/>
      <rect id="Rectangle_17" data-name="Rectangle 17" width="738.22" height="2" transform="translate(0 540.262)" fill="#3f3d56"/>
      <path id="Path_70" data-name="Path 70" d="M895.768,350.074H607.5a5.344,5.344,0,0,1-5.338-5.338V218.229a5.345,5.345,0,0,1,5.338-5.338H895.768a5.344,5.344,0,0,1,5.338,5.338V344.736A5.345,5.345,0,0,1,895.768,350.074Z" transform="translate(-227.693 -178.869)" fill="#ff6768"/>
      <path id="Path_71" data-name="Path 71" d="M666.206,256.985a3.624,3.624,0,0,0,0,7.248H837.063a3.624,3.624,0,0,0,0-7.248Z" transform="translate(-227.693 -178.869)" fill="#fff"/>
      <path id="Path_72" data-name="Path 72" d="M666.206,277.985a3.624,3.624,0,0,0,0,7.248H837.063a3.624,3.624,0,0,0,0-7.248Z" transform="translate(-227.693 -178.869)" fill="#fff"/>
      <path id="Path_73" data-name="Path 73" d="M666.206,298.731a3.624,3.624,0,0,0,0,7.248h73.52a3.624,3.624,0,0,0,0-7.248Z" transform="translate(-227.693 -178.869)" fill="#fff"/>
    </g>
  </g>
</svg>
